<mxfile host="app.diagrams.net" modified="2023-04-09T20:44:49.988Z" agent="5.0 (Windows NT 10.0; Win64; x64) AppleWebKit/537.36 (KHTML, like Gecko) Chrome/112.0.0.0 Safari/537.36 Edg/112.0.1722.34" etag="SzdZic99G7eBmGxV6kLp" version="21.0.10" type="github">
  <diagram name="Page-1" id="03018318-947c-dd8e-b7a3-06fadd420f32">
    <mxGraphModel dx="1050" dy="1391" grid="0" gridSize="10" guides="1" tooltips="1" connect="1" arrows="1" fold="1" page="1" pageScale="1" pageWidth="1100" pageHeight="850" background="none" math="0" shadow="0">
      <root>
        <mxCell id="0" />
        <mxCell id="1" parent="0" />
        <mxCell id="UVgTpFtXeplExd63LQli-21" value="" style="whiteSpace=wrap;html=1;rounded=0;shadow=0;labelBackgroundColor=none;strokeColor=#000000;strokeWidth=1;fillColor=none;fontFamily=Verdana;fontSize=12;fontColor=#000000;align=center;comic=0;movable=1;resizable=1;rotatable=1;deletable=1;editable=1;locked=0;connectable=1;" parent="1" vertex="1">
          <mxGeometry x="10" y="-390" width="1060" height="560" as="geometry" />
        </mxCell>
        <mxCell id="677b7b8949515195-2" value="LOGO" style="whiteSpace=wrap;html=1;rounded=0;shadow=0;labelBackgroundColor=none;strokeWidth=1;fontFamily=Verdana;fontSize=28;align=center;comic=0;" parent="1" vertex="1">
          <mxGeometry x="40" y="-360" width="90" height="90" as="geometry" />
        </mxCell>
        <mxCell id="UVgTpFtXeplExd63LQli-22" value="" style="rounded=0;whiteSpace=wrap;html=1;" parent="1" vertex="1">
          <mxGeometry x="345" y="-130" width="410" height="30" as="geometry" />
        </mxCell>
        <mxCell id="UVgTpFtXeplExd63LQli-27" value="" style="verticalLabelPosition=bottom;shadow=0;dashed=0;align=center;html=1;verticalAlign=top;strokeWidth=1;shape=mxgraph.mockup.forms.splitter;strokeColor=#999999;" parent="1" vertex="1">
          <mxGeometry x="10" y="-250" width="1060" height="10" as="geometry" />
        </mxCell>
        <mxCell id="UVgTpFtXeplExd63LQli-28" value="Email" style="text;html=1;strokeColor=none;fillColor=none;align=left;verticalAlign=middle;whiteSpace=wrap;rounded=0;fontStyle=1;fontSize=14;" parent="1" vertex="1">
          <mxGeometry x="345" y="-160" width="165" height="30" as="geometry" />
        </mxCell>
        <mxCell id="UVgTpFtXeplExd63LQli-29" value="&lt;b style=&quot;font-size: 18px;&quot;&gt;Login&lt;/b&gt;" style="text;html=1;strokeColor=none;fillColor=none;align=center;verticalAlign=middle;whiteSpace=wrap;rounded=0;fontSize=18;" parent="1" vertex="1">
          <mxGeometry x="500" y="-230" width="80" height="30" as="geometry" />
        </mxCell>
        <mxCell id="UVgTpFtXeplExd63LQli-30" value="" style="rounded=0;whiteSpace=wrap;html=1;" parent="1" vertex="1">
          <mxGeometry x="345" y="-50" width="410" height="30" as="geometry" />
        </mxCell>
        <mxCell id="UVgTpFtXeplExd63LQli-31" value="Password" style="text;html=1;strokeColor=none;fillColor=none;align=left;verticalAlign=middle;whiteSpace=wrap;rounded=0;fontStyle=1;fontSize=14;" parent="1" vertex="1">
          <mxGeometry x="345" y="-80" width="165" height="30" as="geometry" />
        </mxCell>
        <mxCell id="UVgTpFtXeplExd63LQli-43" value="Keep me logged in" style="text;html=1;strokeColor=none;fillColor=none;align=left;verticalAlign=middle;whiteSpace=wrap;rounded=0;fontStyle=0;fontSize=12;" parent="1" vertex="1">
          <mxGeometry x="375" y="-20" width="175" height="30" as="geometry" />
        </mxCell>
        <mxCell id="UVgTpFtXeplExd63LQli-44" value="" style="shape=image;verticalLabelPosition=bottom;labelBackgroundColor=default;verticalAlign=top;aspect=fixed;imageAspect=0;image=data:image/png,iVBORw0KGgoAAAANSUhEUgAAABAAAAAQCAYAAAAf8/9hAAAAWklEQVQ4je3ToRHAMAxDUSVXQa+QDbL/IOEBXkFQoOVlvpKCiP/H1Pbed2bCNiojiTEGrszEnBMRUQIkYa2FbrscA0BEwDZ6uXztAAf4CUASksqhJJBE+3rnBzocJ/m1VczfAAAAAElFTkSuQmCC;" parent="1" vertex="1">
          <mxGeometry x="345" y="-13" width="16" height="16" as="geometry" />
        </mxCell>
        <mxCell id="UVgTpFtXeplExd63LQli-45" value="&lt;div style=&quot;direction: ltr;&quot;&gt;&lt;span style=&quot;background-color: initial;&quot;&gt;No account? &lt;u style=&quot;&quot;&gt;&lt;font color=&quot;#6666ff&quot;&gt;Sign up&lt;/font&gt;&lt;/u&gt;&lt;/span&gt;&lt;/div&gt;" style="text;html=1;strokeColor=none;fillColor=none;align=center;verticalAlign=middle;whiteSpace=wrap;rounded=0;" parent="1" vertex="1">
          <mxGeometry x="420" y="-200" width="240" height="30" as="geometry" />
        </mxCell>
        <mxCell id="UVgTpFtXeplExd63LQli-46" value="&lt;b&gt;Login&lt;/b&gt;" style="rounded=1;whiteSpace=wrap;html=1;fillColor=#99CCFF;" parent="1" vertex="1">
          <mxGeometry x="340" y="20" width="420" height="30" as="geometry" />
        </mxCell>
        <mxCell id="UVgTpFtXeplExd63LQli-48" value="&lt;font color=&quot;#6666ff&quot;&gt;Forgot password?&lt;/font&gt;" style="text;html=1;strokeColor=none;fillColor=none;align=left;verticalAlign=middle;whiteSpace=wrap;rounded=0;fontStyle=0;fontSize=12;" parent="1" vertex="1">
          <mxGeometry x="660" y="-20" width="175" height="30" as="geometry" />
        </mxCell>
      </root>
    </mxGraphModel>
  </diagram>
</mxfile>
